<svg width="136" height="37" viewBox="0 0 136 37" fill="none" xmlns="http://www.w3.org/2000/svg">
<g clip-path="url(#clip0_80_156)">
<path d="M15.5769 0.687151L15.9255 0.239925L16.5163 0.167847L16.9619 0.518695H19.9086L20.3552 0.167847L20.9443 0.239925L21.2942 0.686464L24.1561 1.39324L24.6726 1.15943L25.2277 1.37079L25.4605 1.88914L28.0669 3.2582L28.6243 3.15654L29.1126 3.49304L29.2148 4.0534L31.4216 6.00911L31.9864 6.04515L32.3793 6.48935L32.3461 7.05637L34.0177 9.48176L34.5592 9.65117L34.8362 10.1781L34.6678 10.7198L35.7127 13.48L36.1989 13.7735L36.3401 14.3511L36.0477 14.8367L36.4014 17.7664L36.8023 18.1679V18.7642L36.4014 19.1644L36.0477 22.0915L36.3414 22.577L36.2002 23.156L35.714 23.4482L34.6691 26.2084L34.8375 26.75L34.5605 27.2783L34.0203 27.4465L32.3461 29.8745L32.3793 30.4428L31.9864 30.887L31.4216 30.9204L29.2178 32.8762L29.1152 33.4351L28.6276 33.774L28.0696 33.6699L25.4598 35.0414L25.2277 35.5603L24.6726 35.7711L24.1554 35.5376L21.2972 36.2447L20.9476 36.6917L20.3578 36.7624L19.9123 36.4114H16.9648L16.5189 36.7624L15.9292 36.6917L15.5799 36.2447L12.718 35.5376L12.2016 35.7711L11.6464 35.5603L11.4129 35.0414L8.80685 33.6726L8.24942 33.7754L7.76025 33.4365L7.65868 32.8775L5.45183 30.9204L4.88672 30.887L4.49248 30.4428L4.52614 29.8745L2.85439 27.4504L2.31265 27.281L2.03691 26.7541L2.20538 26.211L1.16008 23.4509L0.675235 23.1587L0.532673 22.5797L0.825748 22.0954L0.470439 19.1644L0.0698242 18.7642V18.1679L0.470439 17.7664L0.825063 14.8408L0.531645 14.3538L0.674207 13.7762L1.15913 13.4826L2.20408 10.7225L2.0352 10.1808L2.31128 9.65385L2.8524 9.48443L4.52682 7.05637L4.49248 6.48935L4.88672 6.04515L5.45183 6.00911L7.65566 4.05463L7.75724 3.49572L8.24675 3.15791L8.80384 3.26088L11.4136 1.88914L11.6464 1.37079L12.2016 1.15943L12.718 1.39324L15.5769 0.687151Z" fill="#FFCD00"/>
<path d="M20.3847 0.0157471L18.4369 11.1066L16.4885 0.0157471H20.3847ZM20.9558 0.0847359L20.1962 11.3201L24.738 1.01866L20.9558 0.0847359ZM25.2716 1.22137L21.8513 11.9497L28.7222 3.03513L25.2716 1.22137ZM29.194 3.36229L23.3095 12.957L32.1095 5.95037L29.194 3.36229ZM32.4891 6.37865L24.4836 14.2857L34.7029 9.58976L32.4891 6.37865ZM34.9687 10.0993L25.3072 15.8546L36.3506 13.7467L34.9687 10.0993ZM36.4892 14.3057L25.7314 17.5795L36.9581 18.1785L36.4892 14.3057ZM36.9581 18.7522L25.7314 19.3525L36.4892 22.6264L36.9581 18.7522ZM36.3506 23.1826L25.3072 21.0749L34.9687 26.8327L36.3506 23.1826ZM34.7029 27.3423L24.4836 22.6464L32.4891 30.5521L34.7029 27.3423ZM32.1095 30.9817L23.3095 23.9725L29.1941 33.5685L32.1095 30.9817ZM28.7222 33.8967L21.8513 24.9824L25.2716 35.7097L28.7222 33.8967ZM20.3847 36.9144L18.4369 25.8241L16.4885 36.9144H20.3847ZM15.9182 36.8463L16.6777 25.6107L12.1359 35.9111L15.9182 36.8463ZM11.6017 35.7097L15.0227 24.9824L8.15179 33.8967L11.6017 35.7097ZM7.67852 33.5685L13.5644 23.9725L4.76243 30.9817L7.67852 33.5685ZM4.38416 30.5521L12.3902 22.6464L2.17033 27.3423L4.38416 30.5521ZM1.90364 26.8327L11.5661 21.0748L0.521264 23.1826L1.90364 26.8327ZM0.384048 22.6264L11.1424 19.3525L-0.0854492 18.7522L0.384048 22.6264ZM-0.0854492 18.1786L11.1424 17.5796L0.384048 14.3057L-0.0854492 18.1786ZM0.521264 13.7467L11.566 15.8546L1.90357 10.0993L0.521264 13.7467ZM2.17033 9.58976L12.3902 14.2857L4.38416 6.37865L2.17033 9.58976ZM4.76243 5.95037L13.5644 12.9569L7.67852 3.36229L4.76243 5.95037ZM8.15179 3.03513L15.0227 11.9497L11.6017 1.22137L8.15179 3.03513ZM12.1359 1.01859L16.6776 11.32L15.9182 0.0847359L12.1359 1.01859ZM24.7381 35.9111L20.1963 25.6107L20.9559 36.8463" fill="#202020"/>
<path d="M30.6016 4.5456L29.2102 6.14786C29.496 6.39999 29.7733 6.66016 30.0401 6.92959L29.6269 7.34051C29.2203 6.92959 28.7927 6.54408 28.3441 6.17984L30.0531 4.08135L30.6016 4.5456ZM35.578 11.5615L33.0532 12.5714C33.1317 12.7635 33.2097 12.9663 33.2776 13.1584L35.8351 12.2485L35.578 11.5615ZM36.8453 16.9418L34.7541 16.519L34.7528 16.5122L36.6882 15.6291L36.5656 14.918L34.0374 16.2388C34.074 16.4856 34.1007 16.7297 34.1247 16.9765L36.8867 17.6275L36.8453 16.9418ZM36.0515 24.0298L35.4035 23.8258C35.3375 24.0352 35.2656 24.2446 35.1923 24.4527L33.2775 23.7657C33.2096 23.9578 33.1343 24.1618 33.057 24.354L34.9399 25.1157C34.8573 25.3253 34.7687 25.5347 34.6774 25.7375L35.3028 26.0163L36.0515 24.0298ZM33.841 28.6751L31.5779 27.1676C31.4654 27.3384 31.3422 27.5198 31.223 27.6865L33.4214 29.2794L33.841 28.6751ZM31.448 31.5954L30.9685 31.1097C30.8143 31.2658 30.6548 31.418 30.4913 31.5673L29.1167 30.0678C28.9658 30.2066 28.805 30.352 28.6474 30.4855L29.9611 32.0383C29.7899 32.185 29.6154 32.3265 29.4396 32.4665L29.8629 33.0002L31.448 31.5954ZM27.3381 34.6771L26.0317 32.2878C25.8519 32.3892 25.6607 32.4892 25.4765 32.5827L26.6884 35.0214L27.3381 34.6771ZM21.5208 36.7089L21.411 36.0338C21.7652 35.9738 22.1183 35.9031 22.5132 35.811L22.4023 35.3681C22.0447 35.4495 21.7366 35.5135 21.418 35.5682L21.3323 35.0505C21.6344 34.9972 21.9354 34.9358 22.2761 34.8571L22.1619 34.4036C21.7992 34.489 21.4742 34.5529 21.1482 34.6077L21.0523 34.0327C21.5837 33.9433 22.1112 33.8259 22.6314 33.6805L22.8315 34.3689C23.1145 34.2902 23.395 34.2022 23.6737 34.1074L23.8116 33.5765L24.2201 34.4956L23.6857 36.206L21.5208 36.7089ZM23.2481 35.7937L23.5358 34.7091C23.3473 34.7679 23.1449 34.8279 22.9634 34.8786L23.2149 35.8018L23.2481 35.7937ZM14.3882 36.5194L14.9906 33.862C14.7891 33.8166 14.5773 33.7672 14.3782 33.7139L13.6726 36.342L14.3882 36.5194ZM10.6055 35.2241L11.7644 32.7667C11.2416 32.5212 10.7331 32.2491 10.24 31.9489L9.93756 32.4479C10.2615 32.6453 10.5929 32.8307 10.9306 33.0055L9.95222 34.9039L10.6055 35.2241ZM6.83099 32.8561L8.539 30.7509C8.09041 30.388 7.66149 30.0011 7.25484 29.5902L6.84196 30.0025C7.10968 30.2733 7.38671 30.5321 7.67246 30.7829L6.27754 32.3798L6.83099 32.8561ZM2.8535 28.4002L4.89852 27.7986L4.90249 27.804L3.5988 29.4849L4.0404 30.0532L5.6628 27.7106C5.51798 27.5105 5.37809 27.3064 5.2432 27.0995L2.49586 27.8119L2.8535 28.4002ZM0.255091 21.7472L0.926712 21.6258C0.887781 21.4097 0.852757 21.1909 0.821846 20.9735L2.83582 20.6893C2.80689 20.4866 2.7792 20.2691 2.75761 20.0649L0.736583 20.269C0.713005 20.0435 0.693951 19.8182 0.679626 19.5953L0.00430458 19.638L0.255091 21.7472ZM-0.0283203 17.3434L2.70936 17.5021C2.72204 17.2927 2.73904 17.0845 2.7596 16.8764L1.74096 16.7763C1.74329 16.7537 1.74494 16.711 1.75227 16.6749C1.78586 16.4935 2.00697 16.3534 2.24343 16.2681C2.4376 16.196 2.85514 16.0826 2.85514 16.0826C2.88914 15.8465 2.9254 15.6183 2.98434 15.3769C2.98434 15.3769 2.26803 15.625 2.01032 15.7744C1.84583 15.8678 1.7546 15.9145 1.65268 16.0345L1.64 16.0319C1.63171 15.6129 1.38463 15.3488 0.994635 15.3221C0.518832 15.2875 0.261671 15.7184 0.198135 16.2427L0.0802465 16.2333L-0.0283203 17.3434ZM1.03233 16.008C1.29641 16.0374 1.32904 16.2868 1.30978 16.4496C1.29909 16.5443 1.28648 16.6524 1.27811 16.7431L0.627056 16.6778C0.638365 16.5697 0.640353 16.471 0.651319 16.3722C0.681682 16.0987 0.817254 15.9826 1.03233 16.008ZM1.04803 12.2126L3.27049 14.1777C3.33403 13.9508 3.4023 13.7267 3.47591 13.5053L2.99373 13.1157C3.09435 12.8235 3.20319 12.5354 3.32005 12.2512L3.9378 12.2793C4.033 12.0578 4.13327 11.835 4.23814 11.6175L1.30375 11.5375L1.04803 12.2126ZM1.72472 12.1112L2.79058 12.1992C2.71471 12.3913 2.64212 12.5808 2.57317 12.7742L1.72198 12.1192L1.72472 12.1112ZM5.22525 5.53815L7.16698 7.43386C7.29987 7.29643 7.43476 7.16443 7.57225 7.03229L6.36342 5.76625L8.27691 6.39992C8.45504 6.24918 8.63688 6.10248 8.82166 5.9597L7.20392 3.77979L6.66444 4.20532L7.81002 5.61146L5.82661 4.94718L5.22525 5.53815ZM21.3167 2.88431C21.5475 3.031 21.8102 3.15909 22.076 3.22376C22.6445 3.36352 23.2096 3.24607 23.3643 2.61473C23.4517 2.25524 23.3387 1.94935 22.721 1.6412C22.4406 1.50583 22.3887 1.39881 22.4136 1.29537C22.4529 1.13226 22.5991 1.04652 22.9175 1.12423C23.0533 1.15794 23.2758 1.25933 23.4306 1.36374L23.734 0.937172C23.4966 0.772079 23.2465 0.641653 22.9621 0.570948C22.4785 0.452259 21.8628 0.572321 21.7273 1.12293C21.6068 1.61855 21.8715 1.84803 22.1492 2.01052C22.4262 2.17293 22.7203 2.26794 22.6627 2.50442C22.6034 2.7455 22.3757 2.73219 22.1689 2.68221C21.9874 2.63849 21.7487 2.51307 21.6051 2.42644L21.3167 2.88431ZM25.1043 2.68221C24.749 3.36091 24.9221 4.16139 25.7167 4.57889C26.5075 4.99379 27.2634 4.68296 27.6194 4.00392C27.9737 3.32618 27.8009 2.52604 27.01 2.11026C26.2159 1.6933 25.4596 2.00447 25.1043 2.68221ZM25.7313 3.01103C25.9997 2.49804 26.4057 2.41106 26.752 2.59345C27.102 2.77722 27.2608 3.16177 26.9925 3.67572C26.7247 4.18665 26.3171 4.27465 25.9678 4.09062C25.6207 3.90918 25.4626 3.52367 25.7313 3.01103ZM34.226 19.4593C34.1075 19.7047 34.0135 19.9808 33.9809 20.253C33.9116 20.8347 34.0961 21.383 34.7408 21.4604C35.1064 21.5044 35.3955 21.355 35.6273 20.7053C35.7285 20.4078 35.8284 20.3437 35.9343 20.357C36.0988 20.3758 36.2021 20.5118 36.1634 20.836C36.1474 20.9774 36.0728 21.2108 35.9876 21.3763L36.4485 21.6271C36.5817 21.3696 36.6829 21.1081 36.7175 20.8146C36.7775 20.3197 36.5843 19.7207 36.0229 19.654C35.5154 19.5926 35.321 19.8847 35.1924 20.1783C35.0658 20.4744 35.0066 20.7786 34.7648 20.7493C34.5184 20.72 34.5051 20.4918 34.5303 20.2797C34.5523 20.0942 34.6462 19.8421 34.7155 19.6887L34.226 19.4593ZM4.00106 24.9503C3.99009 24.6768 3.94547 24.3887 3.84753 24.1325C3.63807 23.5842 3.22224 23.1867 2.61478 23.4188C2.26982 23.5508 2.08298 23.8164 2.18092 24.5007C2.2289 24.8103 2.17098 24.9129 2.07167 24.9502C1.91547 25.0117 1.76139 24.9396 1.64542 24.6341C1.59484 24.5007 1.5522 24.2606 1.55022 24.0751L1.02637 24.0658C1.02671 24.3567 1.05995 24.6368 1.16496 24.9117C1.34275 25.3759 1.79127 25.8161 2.32047 25.6134C2.79627 25.4319 2.83431 25.0838 2.80963 24.7622C2.7853 24.4421 2.69641 24.1445 2.92416 24.0578C3.15459 23.9698 3.27385 24.1645 3.3498 24.3647C3.41635 24.5381 3.44973 24.8077 3.46001 24.9757L4.00106 24.9503ZM9.25161 4.00529C9.60658 4.68433 10.3625 4.99516 11.157 4.57889C11.9489 4.16132 12.1208 3.36222 11.7658 2.68352C11.4098 2.00578 10.6542 1.69399 9.86298 2.11026C9.06909 2.52742 8.89596 3.32755 9.25161 4.00529ZM9.87731 3.67709C9.60857 3.16445 9.76806 2.77928 10.1147 2.59744C10.4644 2.4123 10.8703 2.50037 11.1397 3.0124C11.4084 3.52498 11.25 3.90918 10.8999 4.0946C10.5523 4.2761 10.1457 4.18809 9.87731 3.67709ZM13.7558 3.32885C14.0275 3.35151 14.3192 3.34224 14.5854 3.27689C15.1535 3.13507 15.599 2.76857 15.4422 2.13689C15.353 1.77767 15.1112 1.55958 14.4215 1.57496C14.1109 1.58457 14.0143 1.51455 13.9889 1.41117C13.9483 1.24875 14.0381 1.10467 14.3562 1.02566C14.4924 0.991951 14.7355 0.978565 14.9214 0.99861L14.9919 0.479031C14.7049 0.444022 14.4228 0.444022 14.1384 0.514315C13.6559 0.635749 13.1647 1.02799 13.3016 1.5786C13.4244 2.07353 13.7654 2.15392 14.0868 2.16826C14.4075 2.18192 14.7122 2.12996 14.7715 2.3661C14.8301 2.60753 14.6227 2.70198 14.4158 2.75367C14.235 2.79836 13.9649 2.79836 13.7978 2.7893L13.7558 3.32885ZM18.4368 2.06783C18.8034 2.06783 19.1009 1.77074 19.1009 1.40314C19.1009 1.0363 18.8035 0.739061 18.4368 0.739061C18.0696 0.739061 17.7728 1.03623 17.7728 1.40314C17.7728 1.77067 18.0696 2.06783 18.4368 2.06783ZM31.9129 9.15351C32.12 9.4563 32.535 9.53236 32.836 9.32292C33.1377 9.11479 33.2123 8.70127 33.0045 8.39978C32.7974 8.09691 32.3844 8.02216 32.0827 8.23029C31.7804 8.43842 31.7051 8.85201 31.9129 9.15351ZM17.7728 35.5283C17.7728 35.8964 18.0695 36.1926 18.4368 36.1926C18.8034 36.1926 19.1009 35.8965 19.1009 35.5283C19.1009 35.16 18.8035 34.8625 18.4368 34.8625C18.0696 34.8626 17.7728 35.16 17.7728 35.5283ZM4.95945 9.15351C5.1676 8.85201 5.09228 8.43842 4.79064 8.23029C4.48892 8.02216 4.07563 8.09691 3.86748 8.39978C3.65973 8.70127 3.73533 9.11479 4.03704 9.32292C4.33807 9.53236 4.75164 9.4563 4.95945 9.15351Z" fill="white"/>
<path d="M20.9557 20.9867C20.7486 21.1988 20.4612 21.3296 20.1425 21.3296H19.4738C19.0995 21.3296 18.7671 21.511 18.5597 21.7911H18.3133C18.1066 21.511 17.7735 21.3296 17.3993 21.3296H16.7313C16.1029 21.3296 15.5938 20.82 15.5938 20.1903V15.6171" fill="#C00A35"/>
<path d="M15.5938 15.6171H21.2801V20.1903C21.2801 20.5024 21.1569 20.7813 20.9558 20.9867" fill="white"/>
<path d="M21.5767 20.1756C21.5767 20.9681 20.9341 21.6098 20.1424 21.6098H19.4738C19.1228 21.6098 18.8217 21.8246 18.6929 22.1287H18.1801C18.0518 21.8246 17.7508 21.6098 17.3992 21.6098H16.7312C15.939 21.6098 15.2969 20.9682 15.2969 20.1756V15.3196H21.5767V20.1756ZM20.9903 15.9092H15.8833V20.1756C15.8833 20.6412 16.2629 21.0227 16.7311 21.0227H17.3991C17.8067 21.0227 18.167 21.1935 18.4274 21.4657H18.4454C18.7068 21.1935 19.0668 21.0227 19.4737 21.0227H20.1424C20.6109 21.0227 20.9902 20.6412 20.9902 20.1756V15.9092H20.9903Z" fill="#202020"/>
<path d="M49.6067 7.82035H53.3487V8.38338H53.246C52.0924 8.38338 51.9178 8.88868 51.9178 9.58392V13.1823C51.9178 16.4075 49.5804 17.0126 47.8631 17.0126C45.2634 17.0126 43.6181 15.8873 43.6181 13.6747V9.36686C43.6181 8.64238 43.4173 8.38338 42.6077 8.38338H42.3618V7.82035H46.8804V8.38338H46.6376C46.0274 8.38338 45.6121 8.65748 45.6121 9.36686V13.6747C45.6121 15.4383 46.9082 16.0457 48.2215 16.0457C50.1143 16.0457 51.0543 14.9774 51.0543 13.3858V9.87292C51.0543 8.84667 50.7642 8.38338 49.8684 8.38338H49.6067L49.6067 7.82035ZM55.6417 15.2086C55.6417 15.7439 55.8846 15.9721 56.3044 15.9721C56.6499 15.9721 56.982 15.7567 57.401 15.2507L57.6042 15.6553C57.1708 16.4354 56.3043 16.9707 55.5098 16.9707C54.53 16.9707 53.8763 16.4196 53.8763 15.1778V11.71H53.1133V11.3309C53.9791 10.9713 54.9641 9.91493 55.222 9.10642H55.6417V10.9135H57.53L57.3148 11.7101H55.6417V15.2086ZM62.2818 16.8114H58.2669V16.3497H58.3681C58.961 16.3497 59.1761 16.0899 59.1761 15.3392V12.9819C59.1761 12.3317 59.0907 12.1852 58.6582 12.0126L58.2669 11.852V11.4923L60.6341 10.596H60.9392V12.2139H60.9677C61.5006 11.1733 61.7323 10.7543 62.224 10.7543C62.323 10.7543 62.4407 10.7694 62.5112 10.7972L63.6513 11.2176C63.4789 11.8258 63.248 12.3429 62.9624 12.7491C62.5112 12.5749 61.9781 12.388 61.7885 12.388C61.5006 12.388 61.2578 12.5915 60.9392 13.0382V15.3813C60.9392 16.0766 61.1558 16.3498 61.9069 16.3498H62.2818V16.8114ZM69.9307 15.135C69.1256 16.2747 67.9547 16.9706 66.8423 16.9706C65.2689 16.9706 64.2015 15.7566 64.2015 14.0073C64.2015 12.0988 65.4886 10.7542 67.2892 10.7542C68.0567 10.7542 68.6632 11.0004 69.1092 11.4486C69.9614 12.3007 69.5582 13.1108 70.0634 13.3713V13.7902H66.0643C66.1797 14.9907 66.9871 15.9006 67.8401 15.9006C68.3724 15.9006 68.8925 15.5988 69.6024 14.8585L69.9307 15.135ZM68.0709 13.228C68.0567 12.1139 67.6669 11.4352 67.044 11.4352C66.4533 11.4352 65.9211 12.1987 66.02 13.228H68.0709ZM76.9042 15.424C76.2401 16.4354 75.2281 16.9707 73.9598 16.9707C72.199 16.9707 70.927 15.7694 70.927 14.1072C70.927 12.2138 72.5603 10.7543 74.6653 10.7543C75.9074 10.7543 76.8466 11.2747 76.8466 11.9834C76.8466 12.4158 76.5587 12.7071 76.1082 12.7071C75.1008 12.7071 74.8856 11.4195 74.0475 11.4195C73.3249 11.4195 72.8318 12.3008 72.8318 13.6011C72.8318 15.1635 73.5709 16.2183 74.6375 16.2183C75.2889 16.2183 75.8931 15.8873 76.4853 15.1921L76.9042 15.424ZM80.0353 15.3528C80.0353 16.2627 80.2819 16.3497 80.7864 16.3497H80.9303V16.8114H77.2761V16.3497H77.4822C78.219 16.3497 78.2753 16.06 78.2753 15.2934V8.97572C78.2753 8.55836 78.2018 8.45628 77.8127 8.32558L77.3937 8.18142V7.84808L79.6897 7.14014H80.0353V11.852C80.8449 11.2889 81.8816 10.7543 82.6327 10.7543C83.6904 10.7543 84.2091 11.6057 84.2091 13.3122V15.2229C84.2091 16.0766 84.308 16.3498 84.8582 16.3498H84.9999V16.8115H81.5937V16.3498H81.7099C82.3155 16.3498 82.4467 16.1163 82.4467 15.2935V13.1109C82.4467 12.3317 82.0854 11.8392 81.509 11.8392C81.1169 11.8392 80.5412 12.0546 80.0352 12.388V15.3528H80.0353ZM88.1498 15.2086C88.1498 15.7439 88.395 15.9721 88.8125 15.9721C89.1595 15.9721 89.4893 15.7567 89.9107 15.2507L90.113 15.6553C89.679 16.4354 88.8125 16.9707 88.0186 16.9707C87.0374 16.9707 86.3875 16.4196 86.3875 15.1778V11.71H85.6237V11.3309C86.4903 10.9713 87.4715 9.91493 87.7294 9.10642H88.1499V10.9135H90.0374L89.8252 11.7101H88.1498V15.2086Z" fill="#202020"/>
<path d="M49.6089 20.1165H53.348V20.6803H53.2461C52.0932 20.6803 51.9178 21.1863 51.9178 21.8815V25.4815C51.9178 28.7053 49.5805 29.3104 47.8624 29.3104C45.2628 29.3104 43.6181 28.185 43.6181 25.9725V21.6632C43.6181 20.9417 43.4173 20.6804 42.6077 20.6804H42.3618V20.1165H46.8827V20.6803H46.6368C46.0296 20.6803 45.6098 20.9552 45.6098 21.6631V25.9724C45.6098 27.7367 46.9111 28.3419 48.223 28.3419C50.1165 28.3419 51.0542 27.2727 51.0542 25.6811V22.1697C51.0542 21.1442 50.7633 20.6802 49.8683 20.6802H49.6089V20.1165ZM60.1326 27.7945C60.1326 28.5018 60.3898 28.646 60.9557 28.646V29.1099H57.5473V28.646C58.1394 28.6039 58.3711 28.1978 58.3711 27.0123V25.7547C58.3711 24.5978 58.0525 24.1496 57.4768 24.1496C57.0286 24.1496 56.5519 24.3667 55.9446 24.7863V27.7217C55.9446 28.3719 56.2205 28.646 56.7961 28.646H56.9259V29.1099H53.2745V28.646H53.36C53.9679 28.646 54.1831 28.3862 54.1831 27.6346V24.8155C54.1831 24.4972 54.0107 24.3095 53.504 24.1653L53.2034 24.0783V23.7307L55.6702 22.8935H55.9446V24.1781C56.997 23.4852 57.9221 23.0504 58.6148 23.0504C59.6702 23.0504 60.1327 23.8042 60.1327 25.537L60.1326 27.7945ZM65.517 29.1099H61.9091V28.646H62.0681C62.6603 28.646 62.8753 28.3862 62.8753 27.6346V24.8606C62.8753 24.4829 62.7884 24.3809 62.3844 24.2375L61.9091 24.0626V23.7164L64.3768 22.8935H64.6391V27.7367C64.6391 28.3291 64.8805 28.6459 65.5169 28.6459V29.1099H65.517ZM64.8394 20.594C64.8394 21.1728 64.2892 21.5774 63.6993 21.5774C63.0337 21.5774 62.5449 21.1571 62.5449 20.594C62.5449 20.0737 63.0928 19.6105 63.6993 19.6105C64.3596 19.6105 64.8394 20.0452 64.8394 20.594ZM65.6768 23.2111H69.343V23.6744H68.8386C68.5327 23.6744 68.4068 23.9476 68.6512 24.4829L69.9337 27.3621L71.0589 24.8155C71.3917 24.0625 71.22 23.7742 70.2096 23.6744V23.2111H73.0806V23.6744C72.3294 23.7456 72.1436 23.9341 71.8685 24.5399L69.8063 29.2104H68.9397L66.7892 24.5707C66.5163 23.9769 66.3101 23.7456 65.6768 23.6744V23.2111ZM78.8989 27.4335C78.0894 28.5731 76.9223 29.2683 75.8114 29.2683C74.2342 29.2683 73.1698 28.0529 73.1698 26.3058C73.1698 24.3959 74.4531 23.0505 76.2574 23.0505C77.0243 23.0505 77.6262 23.2968 78.0744 23.7457C78.9297 24.5978 78.5235 25.4079 79.0287 25.67V26.0873H75.0295C75.1458 27.2886 75.953 28.1978 76.8046 28.1978C77.3383 28.1978 77.8578 27.8967 78.5661 27.1565L78.8989 27.4335ZM77.037 25.5235C77.0243 24.4117 76.633 23.7307 76.0115 23.7307C75.4193 23.7307 74.8856 24.4972 74.9868 25.5235H77.037ZM83.8066 29.1099H79.7962V28.646H79.8966C80.4874 28.646 80.7024 28.3862 80.7024 27.6346V25.2772C80.7024 24.6271 80.6162 24.4829 80.183 24.3095L79.7962 24.1496V23.7878L82.1605 22.8936H82.4655V24.5115H82.4963C83.0277 23.471 83.2579 23.0505 83.7496 23.0505C83.8523 23.0505 83.967 23.0664 84.0375 23.0949L85.1768 23.5152C85.006 24.1211 84.7743 24.6414 84.4864 25.0461C84.0375 24.8734 83.5038 24.6865 83.3156 24.6865C83.0277 24.6865 82.7819 24.8869 82.4655 25.3366V27.6767C82.4655 28.3719 82.6821 28.646 83.4333 28.646H83.8066V29.1099ZM86.0899 27.4035H86.5518C86.7976 28.2136 87.4332 28.646 88.0524 28.646C88.4572 28.646 88.8006 28.3419 88.8006 27.9823C88.8006 26.9845 86.09 26.6384 86.09 24.8869C86.09 23.7877 87 23.0504 88.353 23.0504C88.9033 23.0504 89.3666 23.1376 89.9722 23.3552L90 24.9019H89.536C89.2773 24.1068 88.8006 23.6744 88.1807 23.6744C87.8059 23.6744 87.5181 23.9056 87.5181 24.2224C87.5181 25.4079 90.3613 25.4521 90.3613 27.4334C90.3613 28.5018 89.5967 29.254 88.4851 29.254C87.4866 29.254 87.1561 29.0506 86.9536 29.0506C86.8682 29.0506 86.7827 29.1099 86.6657 29.2391H86.2475L86.0899 27.4035ZM95.1556 29.1099H91.5448V28.646H91.706C92.296 28.646 92.5133 28.3862 92.5133 27.6346V24.8606C92.5133 24.4829 92.4301 24.3809 92.0238 24.2375L91.5447 24.0626V23.7164L94.0139 22.8935H94.2733V27.7367C94.2733 28.3291 94.5191 28.6459 95.1555 28.6459V29.1099H95.1556ZM94.4765 20.594C94.4765 21.1728 93.9293 21.5774 93.3357 21.5774C92.673 21.5774 92.1819 21.1571 92.1819 20.594C92.1819 20.0737 92.7299 19.6105 93.3357 19.6105C93.9998 19.6105 94.4765 20.0452 94.4765 20.594ZM98.4209 27.5062C98.4209 28.0408 98.6637 28.2705 99.0828 28.2705C99.4284 28.2705 99.7574 28.0528 100.179 27.5476L100.381 27.9545C99.9486 28.7329 99.0828 29.2682 98.2867 29.2682C97.307 29.2682 96.6555 28.7171 96.6555 27.477V24.0054H95.891V23.6293C96.7576 23.2682 97.7395 22.2133 97.9988 21.404H98.421V23.2111H100.31L100.093 24.0054H98.4209V27.5062ZM104.562 28.9583L104.273 29.5939C103.509 31.2697 102.744 30.3742 102.081 31.0387C101.951 31.1687 101.864 31.4137 101.864 31.6454C101.864 32.1221 102.254 32.4688 102.773 32.4688C103.277 32.4688 103.724 32.122 104.086 31.3996L107.315 24.8129C107.72 23.9902 107.907 23.8164 108.556 23.6724V23.2098H105.873V23.6724C106.739 23.6864 106.926 24.1773 106.623 24.7988L105.527 27.0232L104.33 24.5389C104.057 23.9612 104.171 23.6724 104.922 23.6724V23.2098H101.244V23.6724C101.864 23.6724 102.11 23.9463 102.614 24.9865L104.562 28.9583Z" fill="#202020"/>
</g>
<defs>
<clipPath id="clip0_80_156">
<rect width="136" height="37" fill="white"/>
</clipPath>
</defs>
</svg>
